<svg width="469" height="192" viewBox="0 0 469 192" fill="none" xmlns="http://www.w3.org/2000/svg">
<circle cx="59" cy="72" r="44.5" stroke="#B1292D" stroke-width="29"/>
<mask id="mask0_2010_25" style="mask-type:alpha" maskUnits="userSpaceOnUse" x="-28" y="135" width="181" height="77">
<rect x="-28" y="135" width="181" height="77" fill="#D9D9D9"/>
</mask>
<g mask="url(#mask0_2010_25)">
<circle cx="59" cy="132.604" r="44.5" stroke="#B0282D" stroke-width="29"/>
</g>
<path d="M197.408 130.656C197.408 136.032 196.085 140.725 193.44 144.736C190.795 148.747 186.955 151.861 181.92 154.08C176.971 156.213 170.912 157.28 163.744 157.28C160.587 157.28 157.472 157.067 154.4 156.64C151.413 156.213 148.512 155.616 145.696 154.848C142.965 153.995 140.363 152.971 137.888 151.776V133.728C142.24 135.605 146.72 137.355 151.328 138.976C156.021 140.512 160.672 141.28 165.28 141.28C168.437 141.28 170.955 140.853 172.832 140C174.795 139.147 176.203 137.995 177.056 136.544C177.995 135.093 178.464 133.429 178.464 131.552C178.464 129.248 177.653 127.285 176.032 125.664C174.496 124.043 172.405 122.549 169.76 121.184C167.115 119.733 164.085 118.197 160.672 116.576C158.539 115.552 156.235 114.357 153.76 112.992C151.285 111.541 148.896 109.792 146.592 107.744C144.373 105.611 142.539 103.051 141.088 100.064C139.637 97.0773 138.912 93.4933 138.912 89.312C138.912 83.8507 140.149 79.2 142.624 75.36C145.184 71.4347 148.768 68.448 153.376 66.4C158.069 64.352 163.573 63.328 169.888 63.328C174.667 63.328 179.189 63.8827 183.456 64.992C187.808 66.1013 192.331 67.68 197.024 69.728L190.752 84.832C186.571 83.1253 182.816 81.8027 179.488 80.864C176.16 79.9253 172.747 79.456 169.248 79.456C166.859 79.456 164.811 79.84 163.104 80.608C161.397 81.376 160.075 82.4427 159.136 83.808C158.283 85.1733 157.856 86.7947 157.856 88.672C157.856 90.8053 158.496 92.64 159.776 94.176C161.056 95.6267 162.976 97.0347 165.536 98.4C168.096 99.7653 171.296 101.387 175.136 103.264C179.829 105.483 183.797 107.787 187.04 110.176C190.368 112.565 192.928 115.381 194.72 118.624C196.512 121.867 197.408 125.877 197.408 130.656ZM241.924 142.048C244.057 142.048 246.105 141.835 248.068 141.408C250.031 140.981 251.993 140.469 253.956 139.872V154.08C251.908 154.933 249.348 155.659 246.276 156.256C243.289 156.939 240.004 157.28 236.42 157.28C232.239 157.28 228.484 156.597 225.156 155.232C221.913 153.867 219.311 151.52 217.348 148.192C215.471 144.779 214.532 140.085 214.532 134.112V100.448H205.444V92.384L215.94 85.984L221.444 71.264H233.604V86.112H253.188V100.448H233.604V134.112C233.604 136.757 234.372 138.763 235.908 140.128C237.444 141.408 239.449 142.048 241.924 142.048ZM331.472 120.928C331.472 126.731 330.661 131.893 329.04 136.416C327.504 140.939 325.243 144.779 322.256 147.936C319.355 151.008 315.813 153.355 311.632 154.976C307.451 156.512 302.715 157.28 297.424 157.28C292.56 157.28 288.037 156.512 283.856 154.976C279.76 153.355 276.219 151.008 273.232 147.936C270.245 144.779 267.899 140.939 266.192 136.416C264.571 131.893 263.76 126.731 263.76 120.928C263.76 113.163 265.125 106.635 267.856 101.344C270.587 95.968 274.512 91.872 279.632 89.056C284.752 86.24 290.811 84.832 297.808 84.832C304.379 84.832 310.181 86.24 315.216 89.056C320.251 91.872 324.219 95.968 327.12 101.344C330.021 106.635 331.472 113.163 331.472 120.928ZM283.216 120.928C283.216 125.536 283.685 129.419 284.624 132.576C285.648 135.648 287.227 137.995 289.36 139.616C291.493 141.152 294.267 141.92 297.68 141.92C301.093 141.92 303.824 141.152 305.872 139.616C308.005 137.995 309.541 135.648 310.48 132.576C311.504 129.419 312.016 125.536 312.016 120.928C312.016 116.32 311.504 112.48 310.48 109.408C309.541 106.336 308.005 104.032 305.872 102.496C303.739 100.96 300.965 100.192 297.552 100.192C292.517 100.192 288.848 101.941 286.544 105.44C284.325 108.853 283.216 114.016 283.216 120.928ZM386.274 84.832C387.213 84.832 388.322 84.8747 389.602 84.96C390.882 85.0453 391.906 85.1733 392.674 85.344L391.266 103.264C390.669 103.093 389.773 102.965 388.578 102.88C387.469 102.709 386.487 102.624 385.634 102.624C383.159 102.624 380.77 102.965 378.466 103.648C376.162 104.245 374.071 105.227 372.194 106.592C370.402 107.957 368.951 109.792 367.842 112.096C366.818 114.315 366.306 117.088 366.306 120.416V156H347.234V86.112H361.698L364.514 97.888H365.41C366.775 95.4987 368.482 93.3227 370.53 91.36C372.578 89.3973 374.925 87.8187 377.57 86.624C380.301 85.4293 383.202 84.832 386.274 84.832ZM431.659 84.832C438.144 84.832 443.691 86.0693 448.299 88.544C452.992 91.0187 456.619 94.6027 459.179 99.296C461.739 103.989 463.019 109.749 463.019 116.576V125.792H417.963C418.134 131.168 419.712 135.392 422.699 138.464C425.771 141.536 429.995 143.072 435.371 143.072C439.894 143.072 443.99 142.645 447.659 141.792C451.328 140.853 455.126 139.445 459.051 137.568V152.288C455.638 153.995 452.011 155.232 448.171 156C444.416 156.853 439.851 157.28 434.475 157.28C427.478 157.28 421.291 156 415.915 153.44C410.539 150.795 406.315 146.827 403.243 141.536C400.171 136.245 398.635 129.589 398.635 121.568C398.635 113.376 400 106.592 402.731 101.216C405.547 95.7547 409.43 91.6587 414.379 88.928C419.328 86.1973 425.088 84.832 431.659 84.832ZM431.787 98.4C428.118 98.4 425.046 99.5947 422.571 101.984C420.182 104.373 418.774 108.085 418.347 113.12H445.099C445.099 110.304 444.587 107.787 443.563 105.568C442.624 103.349 441.174 101.6 439.211 100.32C437.248 99.04 434.774 98.4 431.787 98.4Z" fill="#B1292D"/>
</svg>
