<svg width="50" height="50" viewBox="0 0 50 50" fill="none" xmlns="http://www.w3.org/2000/svg">
<path d="M24.2921 27.4688C29.742 27.4688 34.1599 23.1105 34.1599 17.7344C34.1599 12.3582 29.742 8 24.2921 8C18.8423 8 14.4243 12.3582 14.4243 17.7344C14.4243 23.1105 18.8423 27.4688 24.2921 27.4688Z" stroke="#B1292D" stroke-width="5"/>
<mask id="mask0_2033_16" style="mask-type:alpha" maskUnits="userSpaceOnUse" x="5" y="31" width="41" height="18">
<path d="M45.1365 31.5156H5V48.3594H45.1365V31.5156Z" fill="#D9D9D9"/>
</mask>
<g mask="url(#mask0_2033_16)">
<path d="M24.2921 40.7258C29.742 40.7258 34.1599 36.3676 34.1599 30.9915C34.1599 25.6153 29.742 21.2571 24.2921 21.2571C18.8423 21.2571 14.4243 25.6153 14.4243 30.9915C14.4243 36.3676 18.8423 40.7258 24.2921 40.7258Z" stroke="#B0282D" stroke-width="5"/>
</g>
</svg>
